<mxfile host="app.diagrams.net" agent="Mozilla/5.0 (Windows NT 10.0; Win64; x64) AppleWebKit/537.36 (KHTML, like Gecko) Chrome/135.0.0.0 Safari/537.36" version="26.2.14">
  <diagram name="Trang-1" id="MLgRRhb_EF8QpCts7SG4">
    <mxGraphModel dx="731" dy="801" grid="1" gridSize="10" guides="1" tooltips="1" connect="1" arrows="1" fold="1" page="1" pageScale="1" pageWidth="827" pageHeight="1169" math="0" shadow="0">
      <root>
        <mxCell id="0" />
        <mxCell id="1" parent="0" />
        <mxCell id="kLB1T0ONuCgOTeSux00g-6" style="edgeStyle=orthogonalEdgeStyle;rounded=0;orthogonalLoop=1;jettySize=auto;html=1;exitX=1;exitY=0.25;exitDx=0;exitDy=0;entryX=0;entryY=0.25;entryDx=0;entryDy=0;" edge="1" parent="1" source="kLB1T0ONuCgOTeSux00g-1" target="kLB1T0ONuCgOTeSux00g-3">
          <mxGeometry relative="1" as="geometry" />
        </mxCell>
        <mxCell id="kLB1T0ONuCgOTeSux00g-7" value="2., Truy vấn" style="edgeLabel;html=1;align=center;verticalAlign=middle;resizable=0;points=[];" vertex="1" connectable="0" parent="kLB1T0ONuCgOTeSux00g-6">
          <mxGeometry x="-0.4357" y="-3" relative="1" as="geometry">
            <mxPoint x="16" y="-13" as="offset" />
          </mxGeometry>
        </mxCell>
        <mxCell id="kLB1T0ONuCgOTeSux00g-10" style="edgeStyle=orthogonalEdgeStyle;rounded=0;orthogonalLoop=1;jettySize=auto;html=1;entryX=1;entryY=0.75;entryDx=0;entryDy=0;exitX=0;exitY=0.75;exitDx=0;exitDy=0;" edge="1" parent="1" source="kLB1T0ONuCgOTeSux00g-1" target="kLB1T0ONuCgOTeSux00g-2">
          <mxGeometry relative="1" as="geometry" />
        </mxCell>
        <mxCell id="kLB1T0ONuCgOTeSux00g-11" value="4. Hiển thị&amp;nbsp;" style="edgeLabel;html=1;align=center;verticalAlign=middle;resizable=0;points=[];" vertex="1" connectable="0" parent="kLB1T0ONuCgOTeSux00g-10">
          <mxGeometry x="0.2595" y="-3" relative="1" as="geometry">
            <mxPoint x="6" y="23" as="offset" />
          </mxGeometry>
        </mxCell>
        <mxCell id="kLB1T0ONuCgOTeSux00g-1" value="Giao diện tra cứu KH" style="rounded=0;whiteSpace=wrap;html=1;" vertex="1" parent="1">
          <mxGeometry x="280" y="360" width="120" height="80" as="geometry" />
        </mxCell>
        <mxCell id="kLB1T0ONuCgOTeSux00g-4" value="" style="edgeStyle=orthogonalEdgeStyle;rounded=0;orthogonalLoop=1;jettySize=auto;html=1;exitX=1;exitY=0.25;exitDx=0;exitDy=0;entryX=0;entryY=0.25;entryDx=0;entryDy=0;" edge="1" parent="1" source="kLB1T0ONuCgOTeSux00g-2" target="kLB1T0ONuCgOTeSux00g-1">
          <mxGeometry relative="1" as="geometry" />
        </mxCell>
        <mxCell id="kLB1T0ONuCgOTeSux00g-5" value="1. Nhập mã KH" style="edgeLabel;html=1;align=center;verticalAlign=middle;resizable=0;points=[];" vertex="1" connectable="0" parent="kLB1T0ONuCgOTeSux00g-4">
          <mxGeometry x="-0.15" y="-2" relative="1" as="geometry">
            <mxPoint y="-12" as="offset" />
          </mxGeometry>
        </mxCell>
        <mxCell id="kLB1T0ONuCgOTeSux00g-2" value="Admin" style="rounded=0;whiteSpace=wrap;html=1;" vertex="1" parent="1">
          <mxGeometry x="30" y="360" width="130" height="80" as="geometry" />
        </mxCell>
        <mxCell id="kLB1T0ONuCgOTeSux00g-8" style="edgeStyle=orthogonalEdgeStyle;rounded=0;orthogonalLoop=1;jettySize=auto;html=1;entryX=0.5;entryY=1;entryDx=0;entryDy=0;exitX=0.5;exitY=1;exitDx=0;exitDy=0;" edge="1" parent="1" source="kLB1T0ONuCgOTeSux00g-3" target="kLB1T0ONuCgOTeSux00g-1">
          <mxGeometry relative="1" as="geometry">
            <mxPoint x="410" y="400" as="targetPoint" />
            <Array as="points">
              <mxPoint x="585" y="520" />
              <mxPoint x="340" y="520" />
            </Array>
          </mxGeometry>
        </mxCell>
        <mxCell id="kLB1T0ONuCgOTeSux00g-9" value="3. Trả về&amp;nbsp; thông tin" style="edgeLabel;html=1;align=center;verticalAlign=middle;resizable=0;points=[];" vertex="1" connectable="0" parent="kLB1T0ONuCgOTeSux00g-8">
          <mxGeometry x="0.0176" y="-3" relative="1" as="geometry">
            <mxPoint x="-9" y="-7" as="offset" />
          </mxGeometry>
        </mxCell>
        <mxCell id="kLB1T0ONuCgOTeSux00g-3" value="Database" style="shape=partialRectangle;whiteSpace=wrap;html=1;left=0;right=0;fillColor=none;" vertex="1" parent="1">
          <mxGeometry x="530" y="360" width="150" height="80" as="geometry" />
        </mxCell>
      </root>
    </mxGraphModel>
  </diagram>
</mxfile>
